<svg xmlns="http://www.w3.org/2000/svg" viewBox="0 0 100 100">
  <!-- Red rounded square background — matches brand's app icon variant -->
  <rect width="100" height="100" rx="22" fill="#D42B2B"/>
  <!-- Logo mark in white, centered in the square -->
  <svg x="8" y="21" width="84" height="58" viewBox="0 0 272 184">
    <g transform="translate(0,184) scale(0.1,-0.1)" fill="white" stroke="none">
      <path d="M1750 1754 c-8 -2 -46 -15 -85 -27 -132 -42 -262 -140 -340 -257 l-47 -70 -266 -2 c-147 -1 -315 -1 -373 1 -117 4 -140 -3 -164 -49 -17 -32 -12 -54 18 -87 l20 -23 426 0 c234 0 431 4 437 8 6 4 23 34 39 67 30 63 161 205 189 205 8 0 16 4 18 8 8 19 139 63 218 72 109 13 226 -9 322 -62 155 -84 248 -196 309 -371 25 -72 29 -97 29 -198 0 -75 -5 -134 -16 -170 -83 -289 -318 -479 -591 -479 -91 0 -134 11 -233 58 -107 51 -192 139 -250 257 -24 50 -49 93 -54 97 -6 4 -238 8 -516 8 -573 0 -550 3 -550 -74 0 -31 6 -48 23 -64 22 -21 31 -22 486 -29 447 -8 464 -9 475 -28 70 -126 137 -204 231 -270 82 -58 142 -83 258 -110 256 -57 560 70 735 307 23 31 42 61 42 67 0 5 4 11 8 13 21 8 65 124 101 264 13 51 14 246 2 288 -5 17 -18 60 -27 96 -49 180 -187 362 -349 458 -133 79 -190 94 -360 98 -82 2 -157 1 -165 -2z"/>
      <path d="M1830 1430 c-53 -6 -139 -37 -188 -68 -22 -14 -62 -79 -62 -101 0 -5 12 -23 26 -40 33 -39 68 -40 120 -3 60 42 90 52 159 52 81 0 138 -22 191 -72 65 -62 96 -135 96 -227 0 -65 -4 -87 -28 -136 -56 -113 -147 -175 -257 -175 -63 0 -110 21 -168 75 -53 50 -74 55 -112 25 -67 -53 -34 -140 78 -206 75 -44 112 -54 199 -54 131 0 226 40 314 134 70 76 108 151 123 247 38 247 -82 453 -316 540 -31 12 -114 16 -175 9z"/>
      <path d="M97 1061 c-10 -10 -20 -34 -23 -53 -5 -27 -1 -40 18 -63 l25 -28 724 -8 c398 -4 801 -8 895 -8 l171 -1 27 26 c32 33 34 74 4 107 l-23 25 -780 11 c-1009 15 -1015 15 -1038 -8z"/>
    </g>
  </svg>
</svg>
